<mxfile host="app.diagrams.net" modified="2023-04-12T20:21:42.251Z" agent="Mozilla/5.0 (Windows NT 10.0; Win64; x64) AppleWebKit/537.36 (KHTML, like Gecko) Chrome/111.0.0.0 Safari/537.36" etag="7FOX0-mu2a4iozBfXQk_" version="21.1.6" type="device">
  <diagram name="Страница 1" id="uaYXhAOdCv4sUYQjL1tP">
    <mxGraphModel dx="2261" dy="764" grid="1" gridSize="10" guides="1" tooltips="1" connect="1" arrows="1" fold="1" page="1" pageScale="1" pageWidth="827" pageHeight="1169" math="0" shadow="0">
      <root>
        <mxCell id="0" />
        <mxCell id="1" parent="0" />
        <mxCell id="1LogmHEmHYJK5K_4FXss-1" value="ioc.core.ts" style="swimlane;whiteSpace=wrap;html=1;rounded=1;dashed=1;fillColor=#dae8fc;strokeColor=#6c8ebf;" vertex="1" parent="1">
          <mxGeometry x="-20" y="60" width="120" height="740" as="geometry" />
        </mxCell>
        <mxCell id="1LogmHEmHYJK5K_4FXss-2" style="edgeStyle=orthogonalEdgeStyle;rounded=0;orthogonalLoop=1;jettySize=auto;html=1;exitX=0;exitY=0.5;exitDx=0;exitDy=0;fillColor=#d5e8d4;strokeColor=#82b366;" edge="1" parent="1" source="1LogmHEmHYJK5K_4FXss-3">
          <mxGeometry relative="1" as="geometry">
            <mxPoint x="99.99999999999977" y="499.7142857142858" as="targetPoint" />
          </mxGeometry>
        </mxCell>
        <mxCell id="1LogmHEmHYJK5K_4FXss-3" value="core.manager.ts" style="rounded=1;whiteSpace=wrap;html=1;fillColor=#d5e8d4;strokeColor=#82b366;" vertex="1" parent="1">
          <mxGeometry x="330" y="480" width="180" height="40" as="geometry" />
        </mxCell>
        <mxCell id="1LogmHEmHYJK5K_4FXss-4" value="bind&lt;br&gt;Symbol(&#39;CoreManager&#39;)" style="edgeLabel;html=1;align=center;verticalAlign=middle;resizable=0;points=[];labelBackgroundColor=#CDA2BE;" vertex="1" connectable="0" parent="1">
          <mxGeometry x="219.99714285714265" y="420" as="geometry">
            <mxPoint x="3" y="82" as="offset" />
          </mxGeometry>
        </mxCell>
        <mxCell id="1LogmHEmHYJK5K_4FXss-5" style="edgeStyle=orthogonalEdgeStyle;rounded=1;orthogonalLoop=1;jettySize=auto;html=1;entryX=1;entryY=0.5;entryDx=0;entryDy=0;fillColor=#dae8fc;strokeColor=#6c8ebf;" edge="1" parent="1" source="1LogmHEmHYJK5K_4FXss-8" target="1LogmHEmHYJK5K_4FXss-3">
          <mxGeometry relative="1" as="geometry" />
        </mxCell>
        <mxCell id="1LogmHEmHYJK5K_4FXss-6" style="edgeStyle=orthogonalEdgeStyle;rounded=1;orthogonalLoop=1;jettySize=auto;html=1;entryX=1;entryY=0.5;entryDx=0;entryDy=0;fillColor=#dae8fc;strokeColor=#6c8ebf;" edge="1" parent="1" source="1LogmHEmHYJK5K_4FXss-8" target="1LogmHEmHYJK5K_4FXss-26">
          <mxGeometry relative="1" as="geometry">
            <Array as="points">
              <mxPoint x="540" y="500" />
              <mxPoint x="540" y="580" />
            </Array>
          </mxGeometry>
        </mxCell>
        <mxCell id="1LogmHEmHYJK5K_4FXss-7" value="extends" style="edgeLabel;html=1;align=center;verticalAlign=middle;resizable=0;points=[];labelBackgroundColor=#CDA2BE;" vertex="1" connectable="0" parent="1LogmHEmHYJK5K_4FXss-6">
          <mxGeometry x="-0.6545" y="-1" relative="1" as="geometry">
            <mxPoint as="offset" />
          </mxGeometry>
        </mxCell>
        <mxCell id="1LogmHEmHYJK5K_4FXss-8" value="abstract.manager.ts" style="rounded=1;whiteSpace=wrap;html=1;fillColor=#dae8fc;strokeColor=#6c8ebf;" vertex="1" parent="1">
          <mxGeometry x="647" y="480" width="180" height="40" as="geometry" />
        </mxCell>
        <mxCell id="1LogmHEmHYJK5K_4FXss-9" value="methods and properties" style="swimlane;whiteSpace=wrap;html=1;fillColor=#f8cecc;strokeColor=#b85450;rounded=1;" vertex="1" parent="1">
          <mxGeometry x="710" y="540" width="380" height="280" as="geometry" />
        </mxCell>
        <mxCell id="1LogmHEmHYJK5K_4FXss-10" value="protected abstract readonly&amp;nbsp;_MANAGER_NAME: string" style="rounded=1;whiteSpace=wrap;html=1;fillColor=#fff2cc;strokeColor=#d6b656;" vertex="1" parent="1LogmHEmHYJK5K_4FXss-9">
          <mxGeometry x="10" y="45" width="360" height="30" as="geometry" />
        </mxCell>
        <mxCell id="1LogmHEmHYJK5K_4FXss-11" value="protected abstract start(): Promise&amp;lt;void&amp;gt;" style="rounded=1;whiteSpace=wrap;html=1;fillColor=#fff2cc;strokeColor=#d6b656;" vertex="1" parent="1LogmHEmHYJK5K_4FXss-9">
          <mxGeometry x="10" y="90" width="360" height="30" as="geometry" />
        </mxCell>
        <mxCell id="1LogmHEmHYJK5K_4FXss-12" value="protected abstract setApplication(app: ApplicationStorage): void" style="rounded=1;whiteSpace=wrap;html=1;fillColor=#fff2cc;strokeColor=#d6b656;" vertex="1" parent="1LogmHEmHYJK5K_4FXss-9">
          <mxGeometry x="10" y="140" width="360" height="30" as="geometry" />
        </mxCell>
        <mxCell id="1LogmHEmHYJK5K_4FXss-13" value="protected abstract _confService: IConfigurationService" style="rounded=1;whiteSpace=wrap;html=1;fillColor=#fff2cc;strokeColor=#d6b656;" vertex="1" parent="1LogmHEmHYJK5K_4FXss-9">
          <mxGeometry x="10" y="190" width="360" height="30" as="geometry" />
        </mxCell>
        <mxCell id="1LogmHEmHYJK5K_4FXss-14" value="protected abstract _loggerService: ILoggerService" style="rounded=1;whiteSpace=wrap;html=1;fillColor=#fff2cc;strokeColor=#d6b656;" vertex="1" parent="1LogmHEmHYJK5K_4FXss-9">
          <mxGeometry x="10" y="240" width="360" height="30" as="geometry" />
        </mxCell>
        <mxCell id="1LogmHEmHYJK5K_4FXss-15" style="edgeStyle=orthogonalEdgeStyle;rounded=1;orthogonalLoop=1;jettySize=auto;html=1;exitX=0;exitY=0.5;exitDx=0;exitDy=0;fillColor=#fff2cc;strokeColor=#d6b656;dashed=1;entryX=0.128;entryY=0.985;entryDx=0;entryDy=0;entryPerimeter=0;" edge="1" parent="1" source="1LogmHEmHYJK5K_4FXss-10" target="1LogmHEmHYJK5K_4FXss-8">
          <mxGeometry relative="1" as="geometry">
            <mxPoint x="670" y="530" as="targetPoint" />
            <Array as="points">
              <mxPoint x="670" y="600" />
              <mxPoint x="670" y="519" />
            </Array>
          </mxGeometry>
        </mxCell>
        <mxCell id="1LogmHEmHYJK5K_4FXss-16" style="edgeStyle=orthogonalEdgeStyle;rounded=1;orthogonalLoop=1;jettySize=auto;html=1;exitX=0;exitY=0.5;exitDx=0;exitDy=0;fillColor=#fff2cc;strokeColor=#d6b656;dashed=1;" edge="1" parent="1" source="1LogmHEmHYJK5K_4FXss-11" target="1LogmHEmHYJK5K_4FXss-8">
          <mxGeometry relative="1" as="geometry">
            <mxPoint x="696" y="520" as="targetPoint" />
            <Array as="points">
              <mxPoint x="670" y="645" />
            </Array>
          </mxGeometry>
        </mxCell>
        <mxCell id="1LogmHEmHYJK5K_4FXss-17" style="edgeStyle=orthogonalEdgeStyle;rounded=1;orthogonalLoop=1;jettySize=auto;html=1;entryX=0.128;entryY=1;entryDx=0;entryDy=0;entryPerimeter=0;exitX=0;exitY=0.5;exitDx=0;exitDy=0;fillColor=#fff2cc;strokeColor=#d6b656;dashed=1;" edge="1" parent="1" source="1LogmHEmHYJK5K_4FXss-12" target="1LogmHEmHYJK5K_4FXss-8">
          <mxGeometry relative="1" as="geometry" />
        </mxCell>
        <mxCell id="1LogmHEmHYJK5K_4FXss-18" style="edgeStyle=orthogonalEdgeStyle;rounded=1;orthogonalLoop=1;jettySize=auto;html=1;entryX=0.5;entryY=0;entryDx=0;entryDy=0;fillColor=#d5e8d4;strokeColor=#82b366;" edge="1" parent="1" target="1LogmHEmHYJK5K_4FXss-22">
          <mxGeometry relative="1" as="geometry">
            <mxPoint x="100" y="640" as="sourcePoint" />
            <Array as="points">
              <mxPoint x="100" y="640" />
              <mxPoint x="420" y="640" />
            </Array>
          </mxGeometry>
        </mxCell>
        <mxCell id="1LogmHEmHYJK5K_4FXss-19" value="inject&lt;br&gt;All managers" style="edgeLabel;html=1;align=center;verticalAlign=middle;resizable=0;points=[];labelBackgroundColor=#CDA2BE;" vertex="1" connectable="0" parent="1LogmHEmHYJK5K_4FXss-18">
          <mxGeometry x="-0.1873" y="2" relative="1" as="geometry">
            <mxPoint x="-23" as="offset" />
          </mxGeometry>
        </mxCell>
        <mxCell id="1LogmHEmHYJK5K_4FXss-20" style="edgeStyle=orthogonalEdgeStyle;rounded=1;orthogonalLoop=1;jettySize=auto;html=1;exitX=0.5;exitY=1;exitDx=0;exitDy=0;fillColor=#dae8fc;strokeColor=#6c8ebf;" edge="1" parent="1" source="1LogmHEmHYJK5K_4FXss-22">
          <mxGeometry relative="1" as="geometry">
            <mxPoint x="100" y="740" as="targetPoint" />
            <Array as="points">
              <mxPoint x="420" y="740" />
              <mxPoint x="100" y="740" />
            </Array>
          </mxGeometry>
        </mxCell>
        <mxCell id="1LogmHEmHYJK5K_4FXss-21" value="bind&lt;br&gt;Symbol(&#39;ManagersFactory&#39;)" style="edgeLabel;html=1;align=center;verticalAlign=middle;resizable=0;points=[];labelBackgroundColor=#CDA2BE;" vertex="1" connectable="0" parent="1LogmHEmHYJK5K_4FXss-20">
          <mxGeometry x="0.3368" y="4" relative="1" as="geometry">
            <mxPoint x="4" y="-4" as="offset" />
          </mxGeometry>
        </mxCell>
        <mxCell id="1LogmHEmHYJK5K_4FXss-22" value="managers.factory.ts" style="rounded=1;whiteSpace=wrap;html=1;fillColor=#d5e8d4;strokeColor=#82b366;" vertex="1" parent="1">
          <mxGeometry x="330" y="670" width="180" height="40" as="geometry" />
        </mxCell>
        <mxCell id="1LogmHEmHYJK5K_4FXss-23" style="edgeStyle=orthogonalEdgeStyle;rounded=1;orthogonalLoop=1;jettySize=auto;html=1;entryX=0.128;entryY=1.004;entryDx=0;entryDy=0;entryPerimeter=0;exitX=0;exitY=0.5;exitDx=0;exitDy=0;fillColor=#fff2cc;strokeColor=#d6b656;dashed=1;" edge="1" parent="1" source="1LogmHEmHYJK5K_4FXss-13" target="1LogmHEmHYJK5K_4FXss-8">
          <mxGeometry relative="1" as="geometry" />
        </mxCell>
        <mxCell id="1LogmHEmHYJK5K_4FXss-24" style="edgeStyle=orthogonalEdgeStyle;rounded=1;orthogonalLoop=1;jettySize=auto;html=1;exitX=0;exitY=0.5;exitDx=0;exitDy=0;fillColor=#fff2cc;strokeColor=#d6b656;dashed=1;" edge="1" parent="1" source="1LogmHEmHYJK5K_4FXss-14">
          <mxGeometry relative="1" as="geometry">
            <mxPoint x="670" y="520" as="targetPoint" />
          </mxGeometry>
        </mxCell>
        <mxCell id="1LogmHEmHYJK5K_4FXss-25" style="edgeStyle=orthogonalEdgeStyle;rounded=0;orthogonalLoop=1;jettySize=auto;html=1;exitX=0;exitY=0.5;exitDx=0;exitDy=0;fillColor=#d5e8d4;strokeColor=#82b366;" edge="1" parent="1" source="1LogmHEmHYJK5K_4FXss-26">
          <mxGeometry relative="1" as="geometry">
            <mxPoint x="99.99999999999977" y="579.7142857142858" as="targetPoint" />
          </mxGeometry>
        </mxCell>
        <mxCell id="1LogmHEmHYJK5K_4FXss-26" value="{manager-name}.manager.ts" style="rounded=1;whiteSpace=wrap;html=1;fillColor=#d5e8d4;strokeColor=#82b366;" vertex="1" parent="1">
          <mxGeometry x="330" y="560" width="180" height="40" as="geometry" />
        </mxCell>
        <mxCell id="1LogmHEmHYJK5K_4FXss-27" value="bind&lt;br&gt;Symbol(&#39;{ManagerName}Manager&#39;)" style="edgeLabel;html=1;align=center;verticalAlign=middle;resizable=0;points=[];labelBackgroundColor=#CDA2BE;" vertex="1" connectable="0" parent="1">
          <mxGeometry x="219.99714285714265" y="500" as="geometry">
            <mxPoint x="3" y="82" as="offset" />
          </mxGeometry>
        </mxCell>
        <mxCell id="1LogmHEmHYJK5K_4FXss-28" value="core.manager.mediator.ts" style="rounded=1;whiteSpace=wrap;html=1;fillColor=#d5e8d4;strokeColor=#82b366;" vertex="1" parent="1">
          <mxGeometry x="330" y="310" width="180" height="40" as="geometry" />
        </mxCell>
        <mxCell id="1LogmHEmHYJK5K_4FXss-29" style="edgeStyle=orthogonalEdgeStyle;rounded=1;orthogonalLoop=1;jettySize=auto;html=1;entryX=1;entryY=0.5;entryDx=0;entryDy=0;fillColor=#dae8fc;strokeColor=#6c8ebf;" edge="1" parent="1" source="1LogmHEmHYJK5K_4FXss-30" target="1LogmHEmHYJK5K_4FXss-28">
          <mxGeometry relative="1" as="geometry" />
        </mxCell>
        <mxCell id="1LogmHEmHYJK5K_4FXss-30" value="abstract.manager.mediator.ts" style="rounded=1;whiteSpace=wrap;html=1;fillColor=#dae8fc;strokeColor=#6c8ebf;" vertex="1" parent="1">
          <mxGeometry x="647" y="310" width="180" height="40" as="geometry" />
        </mxCell>
        <mxCell id="1LogmHEmHYJK5K_4FXss-31" value="methods and properties" style="swimlane;whiteSpace=wrap;html=1;fillColor=#f8cecc;strokeColor=#b85450;rounded=1;" vertex="1" parent="1">
          <mxGeometry x="710" y="370" width="390" height="90" as="geometry" />
        </mxCell>
        <mxCell id="1LogmHEmHYJK5K_4FXss-32" value="protected abstract applyAdministrator(app: ApplicationStorage): void" style="rounded=1;whiteSpace=wrap;html=1;fillColor=#fff2cc;strokeColor=#d6b656;" vertex="1" parent="1LogmHEmHYJK5K_4FXss-31">
          <mxGeometry x="10" y="40" width="370" height="30" as="geometry" />
        </mxCell>
        <mxCell id="1LogmHEmHYJK5K_4FXss-33" style="edgeStyle=orthogonalEdgeStyle;rounded=1;orthogonalLoop=1;jettySize=auto;html=1;exitX=0;exitY=0.5;exitDx=0;exitDy=0;fillColor=#fff2cc;strokeColor=#d6b656;dashed=1;entryX=0.125;entryY=0.975;entryDx=0;entryDy=0;entryPerimeter=0;" edge="1" parent="1" source="1LogmHEmHYJK5K_4FXss-32" target="1LogmHEmHYJK5K_4FXss-30">
          <mxGeometry relative="1" as="geometry">
            <mxPoint x="670" y="360" as="targetPoint" />
            <Array as="points">
              <mxPoint x="670" y="430" />
              <mxPoint x="670" y="349" />
            </Array>
          </mxGeometry>
        </mxCell>
        <mxCell id="1LogmHEmHYJK5K_4FXss-34" value="extends" style="edgeLabel;html=1;align=center;verticalAlign=middle;resizable=0;points=[];labelBackgroundColor=#CDA2BE;" vertex="1" connectable="0" parent="1">
          <mxGeometry x="610.0000000000001" y="330" as="geometry" />
        </mxCell>
        <mxCell id="1LogmHEmHYJK5K_4FXss-35" style="edgeStyle=orthogonalEdgeStyle;rounded=1;orthogonalLoop=1;jettySize=auto;html=1;entryX=0.5;entryY=0;entryDx=0;entryDy=0;fillColor=#d5e8d4;strokeColor=#82b366;" edge="1" parent="1">
          <mxGeometry relative="1" as="geometry">
            <mxPoint x="100" y="280" as="sourcePoint" />
            <Array as="points">
              <mxPoint x="100" y="280" />
              <mxPoint x="420" y="280" />
            </Array>
            <mxPoint x="420" y="310" as="targetPoint" />
          </mxGeometry>
        </mxCell>
        <mxCell id="1LogmHEmHYJK5K_4FXss-36" value="inject&lt;br&gt;All commands" style="edgeLabel;html=1;align=center;verticalAlign=middle;resizable=0;points=[];labelBackgroundColor=#CDA2BE;" vertex="1" connectable="0" parent="1LogmHEmHYJK5K_4FXss-35">
          <mxGeometry x="-0.1873" y="2" relative="1" as="geometry">
            <mxPoint x="-23" as="offset" />
          </mxGeometry>
        </mxCell>
        <mxCell id="1LogmHEmHYJK5K_4FXss-37" style="edgeStyle=orthogonalEdgeStyle;rounded=1;orthogonalLoop=1;jettySize=auto;html=1;exitX=0.5;exitY=1;exitDx=0;exitDy=0;fillColor=#dae8fc;strokeColor=#6c8ebf;" edge="1" parent="1">
          <mxGeometry relative="1" as="geometry">
            <mxPoint x="100" y="380" as="targetPoint" />
            <Array as="points">
              <mxPoint x="420" y="380" />
              <mxPoint x="100" y="380" />
            </Array>
            <mxPoint x="420" y="350" as="sourcePoint" />
          </mxGeometry>
        </mxCell>
        <mxCell id="1LogmHEmHYJK5K_4FXss-38" value="bind&lt;br&gt;Symbol(&#39;ManagersFactory&#39;)" style="edgeLabel;html=1;align=center;verticalAlign=middle;resizable=0;points=[];labelBackgroundColor=#CDA2BE;" vertex="1" connectable="0" parent="1LogmHEmHYJK5K_4FXss-37">
          <mxGeometry x="0.3368" y="4" relative="1" as="geometry">
            <mxPoint x="4" y="-4" as="offset" />
          </mxGeometry>
        </mxCell>
        <mxCell id="1LogmHEmHYJK5K_4FXss-39" style="edgeStyle=orthogonalEdgeStyle;rounded=0;orthogonalLoop=1;jettySize=auto;html=1;exitX=0;exitY=0.5;exitDx=0;exitDy=0;fillColor=#d5e8d4;strokeColor=#82b366;" edge="1" parent="1" source="1LogmHEmHYJK5K_4FXss-40">
          <mxGeometry relative="1" as="geometry">
            <mxPoint x="99.99999999999977" y="219.71428571428578" as="targetPoint" />
          </mxGeometry>
        </mxCell>
        <mxCell id="1LogmHEmHYJK5K_4FXss-40" value="core.{scope-name}.commands.ts" style="rounded=1;whiteSpace=wrap;html=1;fillColor=#d5e8d4;strokeColor=#82b366;" vertex="1" parent="1">
          <mxGeometry x="330" y="200" width="180" height="40" as="geometry" />
        </mxCell>
        <mxCell id="1LogmHEmHYJK5K_4FXss-41" value="bind&lt;br&gt;Symbol(&#39;{ScopeName}Commands&#39;)" style="edgeLabel;html=1;align=center;verticalAlign=middle;resizable=0;points=[];labelBackgroundColor=#CDA2BE;" vertex="1" connectable="0" parent="1">
          <mxGeometry x="219.99714285714265" y="140" as="geometry">
            <mxPoint x="3" y="82" as="offset" />
          </mxGeometry>
        </mxCell>
        <mxCell id="1LogmHEmHYJK5K_4FXss-42" style="edgeStyle=orthogonalEdgeStyle;rounded=0;orthogonalLoop=1;jettySize=auto;html=1;exitX=0;exitY=0.5;exitDx=0;exitDy=0;fillColor=#d5e8d4;strokeColor=#82b366;" edge="1" parent="1" source="1LogmHEmHYJK5K_4FXss-43">
          <mxGeometry relative="1" as="geometry">
            <mxPoint x="99.99999999999977" y="159.71428571428578" as="targetPoint" />
          </mxGeometry>
        </mxCell>
        <mxCell id="1LogmHEmHYJK5K_4FXss-43" value="core.logger.commands.ts" style="rounded=1;whiteSpace=wrap;html=1;fillColor=#d5e8d4;strokeColor=#82b366;" vertex="1" parent="1">
          <mxGeometry x="330" y="140" width="180" height="40" as="geometry" />
        </mxCell>
        <mxCell id="1LogmHEmHYJK5K_4FXss-44" style="edgeStyle=orthogonalEdgeStyle;rounded=0;orthogonalLoop=1;jettySize=auto;html=1;exitX=0;exitY=0.5;exitDx=0;exitDy=0;fillColor=#d5e8d4;strokeColor=#82b366;" edge="1" parent="1" source="1LogmHEmHYJK5K_4FXss-45">
          <mxGeometry relative="1" as="geometry">
            <mxPoint x="99.99999999999977" y="99.71428571428578" as="targetPoint" />
          </mxGeometry>
        </mxCell>
        <mxCell id="1LogmHEmHYJK5K_4FXss-45" value="core.profiler.commands.ts" style="rounded=1;whiteSpace=wrap;html=1;fillColor=#d5e8d4;strokeColor=#82b366;" vertex="1" parent="1">
          <mxGeometry x="330" y="80" width="180" height="40" as="geometry" />
        </mxCell>
        <mxCell id="1LogmHEmHYJK5K_4FXss-46" value="bind&lt;br&gt;Symbol(&#39;CoreLoggerCommands&#39;)" style="edgeLabel;html=1;align=center;verticalAlign=middle;resizable=0;points=[];labelBackgroundColor=#CDA2BE;" vertex="1" connectable="0" parent="1">
          <mxGeometry x="219.99714285714265" y="80" as="geometry">
            <mxPoint x="3" y="82" as="offset" />
          </mxGeometry>
        </mxCell>
        <mxCell id="1LogmHEmHYJK5K_4FXss-47" value="bind&lt;br&gt;Symbol(&#39;CoreProfilerCommands&#39;)" style="edgeLabel;html=1;align=center;verticalAlign=middle;resizable=0;points=[];labelBackgroundColor=#CDA2BE;" vertex="1" connectable="0" parent="1">
          <mxGeometry x="219.99714285714265" y="20" as="geometry">
            <mxPoint x="3" y="82" as="offset" />
          </mxGeometry>
        </mxCell>
      </root>
    </mxGraphModel>
  </diagram>
</mxfile>
